<svg width="672" height="180" viewBox="0 0 672 180" fill="none" xmlns="http://www.w3.org/2000/svg">
<path fill-rule="evenodd" clip-rule="evenodd" d="M488.933 179.703L469.026 179.857C465.175 179.857 463.669 174.454 466.382 171.722C474.024 164.029 476.21 152.922 476.565 124.401V115.705C476.565 115.329 476.584 114.96 476.621 114.593C476.621 114.55 476.621 114.507 476.621 114.464H476.635C477.251 108.993 481.894 104.742 487.529 104.742H552.067C555.528 104.742 558.23 102.041 558.23 98.5792L556.184 100.625L558.23 98.5726V98.2913L556.184 100.328L558.23 98.2828C558.23 94.8212 555.528 92.1208 552.067 92.1208H487.529C481.474 92.1208 476.565 87.212 476.565 81.1573V11.258C476.565 5.20321 481.474 0.294479 487.529 0.294479H534.941C540.996 0.294479 545.905 5.20321 545.905 11.258V77.8669C545.905 79.4533 546.612 80.9446 547.56 81.9872C548.549 83.0749 550.112 84.0299 552.067 84.0299C554.022 84.0299 555.585 83.0749 556.574 81.9872C557.521 80.9446 558.23 79.4524 558.23 77.8669V11.258C558.23 5.20321 563.137 0.294479 569.192 0.294479H616.606C622.66 0.294479 627.569 5.20321 627.569 11.258V143.849C627.569 163.774 611.64 179.703 591.715 179.703H488.933Z" fill="black"/>
<path fill-rule="evenodd" clip-rule="evenodd" d="M349.228 0.294479H428.525C448.449 0.294479 464.378 16.2232 464.378 36.1479V143.849C464.378 163.774 448.449 179.703 428.525 179.703H349.228C329.303 179.703 313.374 163.774 313.374 143.849V36.1479C313.374 16.2232 329.303 0.294479 349.228 0.294479ZM388.876 72.5922C386.921 72.5931 385.358 73.5472 384.37 74.6349C383.422 75.6774 382.715 77.1678 382.714 78.7533V110.71C382.714 114.174 385.414 116.872 388.876 116.872C392.339 116.872 395.038 114.174 395.038 110.71V78.7542C395.038 77.1688 394.331 75.6774 393.382 74.6349C392.395 73.5472 390.831 72.5922 388.876 72.5922Z" fill="black"/>
<path fill-rule="evenodd" clip-rule="evenodd" d="M188.35 0H265.28C285.19 0 301.132 16.2015 301.132 36.1498V71.3954C301.132 77.4501 296.224 82.3589 290.17 82.3589H246.638C241.218 82.3589 236.824 77.9639 236.824 72.5423C236.824 69.0798 234.122 66.3803 230.661 66.3803C227.199 66.3813 224.499 69.0807 224.499 72.5423V104.203C224.499 107.665 227.199 110.365 230.661 110.365C234.122 110.365 236.824 107.665 236.824 104.203C236.824 98.9452 241.085 94.6829 246.343 94.6829H290.17C296.224 94.6829 301.132 99.5917 301.132 105.646V144.147C301.132 164.071 285.205 180 265.28 180H188.35C168.409 180 152.231 164.074 152.497 144.201V144.188V36.1498C152.497 16.2015 168.439 0 188.35 0Z" fill="black"/>
<path fill-rule="evenodd" clip-rule="evenodd" d="M10.9635 0.000923157H129.387C135.442 0.000923157 140.352 4.90965 140.352 10.9644V47.6797C140.352 53.7345 135.442 58.6432 129.387 58.6432H81.1235C77.6618 58.6432 74.9614 61.3427 74.9605 64.8052C74.9605 68.2668 77.6618 70.9682 81.1235 70.9682H129.387C135.442 70.9682 140.351 75.876 140.352 81.9307V97.1829C140.352 103.238 135.442 108.146 129.387 108.146H81.1235C77.6618 108.146 74.9605 110.846 74.9605 114.309C74.9614 117.771 77.6618 120.471 81.1235 120.471H129.387C135.442 120.471 140.352 125.38 140.352 131.435V168.742C140.351 174.796 135.442 179.705 129.387 179.705H10.9635C4.90873 179.705 0 174.797 0 168.742V10.9644C0 4.90965 4.90873 0.000923157 10.9635 0.000923157Z" fill="black"/>
<path d="M655.92 33.0001C646.754 33.0001 639.76 26.0855 639.76 16.9197C639.76 7.91467 646.835 1.00009 655.92 1.00009C665.006 1.00009 671.92 7.83426 671.92 16.9197C671.92 26.1659 665.086 33.0001 655.92 33.0001ZM655.92 30.5076C663.559 30.5076 669.347 24.7187 669.347 16.9197C669.347 9.2011 663.559 3.49255 655.92 3.49255C648.202 3.49255 642.413 9.2815 642.413 16.9197C642.413 24.7187 648.121 30.5076 655.92 30.5076ZM652.463 25.7639H649.729V7.83426H656.483C660.423 7.83426 662.915 9.84431 662.915 13.2212C662.915 15.6333 661.629 17.5629 659.217 18.3669L663.237 25.7639H660.182L656.644 19.0101H652.463V25.7639ZM660.021 13.382C660.021 11.372 658.654 10.4071 656.403 10.4071H652.463V16.5177H656.403C658.654 16.5177 660.021 15.3921 660.021 13.382Z" fill="black"/>
</svg>
